<mxfile host="app.diagrams.net" agent="Mozilla/5.0 (Windows NT 10.0; Win64; x64) AppleWebKit/537.36 (KHTML, like Gecko) Chrome/135.0.0.0 Safari/537.36" version="26.2.9">
  <diagram name="Page-1" id="5b9bvBtt03sfYutP4h-B">
    <mxGraphModel dx="1428" dy="795" grid="1" gridSize="10" guides="1" tooltips="1" connect="1" arrows="1" fold="1" page="1" pageScale="1" pageWidth="1000" pageHeight="1000" math="0" shadow="0">
      <root>
        <mxCell id="0" />
        <mxCell id="1" parent="0" />
        <mxCell id="n5B1jlr7uFygAWaeZWys-1" value="&lt;b&gt;Road User&lt;/b&gt;" style="text;html=1;align=center;verticalAlign=middle;whiteSpace=wrap;rounded=0;fontSize=15;" parent="1" vertex="1">
          <mxGeometry x="15" y="20" width="110" height="30" as="geometry" />
        </mxCell>
        <mxCell id="n5B1jlr7uFygAWaeZWys-2" style="edgeStyle=orthogonalEdgeStyle;rounded=0;orthogonalLoop=1;jettySize=auto;html=1;exitX=0.5;exitY=1;exitDx=0;exitDy=0;entryX=0.5;entryY=0;entryDx=0;entryDy=0;" parent="1" source="n5B1jlr7uFygAWaeZWys-5" target="n5B1jlr7uFygAWaeZWys-19" edge="1">
          <mxGeometry relative="1" as="geometry" />
        </mxCell>
        <mxCell id="n5B1jlr7uFygAWaeZWys-3" style="edgeStyle=orthogonalEdgeStyle;rounded=0;orthogonalLoop=1;jettySize=auto;html=1;exitX=0.5;exitY=1;exitDx=0;exitDy=0;entryX=0.5;entryY=0;entryDx=0;entryDy=0;" parent="1" source="n5B1jlr7uFygAWaeZWys-5" target="n5B1jlr7uFygAWaeZWys-14" edge="1">
          <mxGeometry relative="1" as="geometry" />
        </mxCell>
        <mxCell id="n5B1jlr7uFygAWaeZWys-4" style="edgeStyle=orthogonalEdgeStyle;rounded=0;orthogonalLoop=1;jettySize=auto;html=1;exitX=0.5;exitY=1;exitDx=0;exitDy=0;" parent="1" source="n5B1jlr7uFygAWaeZWys-5" target="n5B1jlr7uFygAWaeZWys-18" edge="1">
          <mxGeometry relative="1" as="geometry" />
        </mxCell>
        <mxCell id="n5B1jlr7uFygAWaeZWys-5" value="All" style="rounded=1;whiteSpace=wrap;html=1;" parent="1" vertex="1">
          <mxGeometry x="520" y="80" width="120" height="60" as="geometry" />
        </mxCell>
        <mxCell id="n5B1jlr7uFygAWaeZWys-6" value="All" style="text;html=1;align=center;verticalAlign=middle;whiteSpace=wrap;rounded=0;fontSize=15;" parent="1" vertex="1">
          <mxGeometry x="40" y="95" width="60" height="30" as="geometry" />
        </mxCell>
        <mxCell id="n5B1jlr7uFygAWaeZWys-7" style="edgeStyle=orthogonalEdgeStyle;rounded=0;orthogonalLoop=1;jettySize=auto;html=1;exitX=0.5;exitY=0;exitDx=0;exitDy=0;entryX=0.5;entryY=1;entryDx=0;entryDy=0;" parent="1" source="n5B1jlr7uFygAWaeZWys-8" target="n5B1jlr7uFygAWaeZWys-10" edge="1">
          <mxGeometry relative="1" as="geometry" />
        </mxCell>
        <mxCell id="n5B1jlr7uFygAWaeZWys-8" value="gender" style="text;html=1;align=center;verticalAlign=middle;whiteSpace=wrap;rounded=0;fontSize=15;" parent="1" vertex="1">
          <mxGeometry x="40" y="400" width="60" height="30" as="geometry" />
        </mxCell>
        <mxCell id="n5B1jlr7uFygAWaeZWys-9" style="edgeStyle=orthogonalEdgeStyle;rounded=0;orthogonalLoop=1;jettySize=auto;html=1;exitX=0.5;exitY=0;exitDx=0;exitDy=0;entryX=0.5;entryY=1;entryDx=0;entryDy=0;" parent="1" source="n5B1jlr7uFygAWaeZWys-10" target="n5B1jlr7uFygAWaeZWys-6" edge="1">
          <mxGeometry relative="1" as="geometry" />
        </mxCell>
        <mxCell id="n5B1jlr7uFygAWaeZWys-10" value="road_user" style="text;html=1;align=center;verticalAlign=middle;whiteSpace=wrap;rounded=0;fontSize=15;" parent="1" vertex="1">
          <mxGeometry x="40" y="235" width="60" height="30" as="geometry" />
        </mxCell>
        <mxCell id="XY3lKd_vXmPaX-lAeWSB-7" style="edgeStyle=orthogonalEdgeStyle;rounded=0;orthogonalLoop=1;jettySize=auto;html=1;exitX=0.5;exitY=1;exitDx=0;exitDy=0;entryX=0.5;entryY=0;entryDx=0;entryDy=0;" edge="1" parent="1" source="n5B1jlr7uFygAWaeZWys-14" target="XY3lKd_vXmPaX-lAeWSB-3">
          <mxGeometry relative="1" as="geometry" />
        </mxCell>
        <mxCell id="n5B1jlr7uFygAWaeZWys-14" value="Pedestrian" style="rounded=1;whiteSpace=wrap;html=1;" parent="1" vertex="1">
          <mxGeometry x="360" y="220" width="120" height="60" as="geometry" />
        </mxCell>
        <mxCell id="n5B1jlr7uFygAWaeZWys-15" style="edgeStyle=orthogonalEdgeStyle;rounded=0;orthogonalLoop=1;jettySize=auto;html=1;exitX=0.5;exitY=1;exitDx=0;exitDy=0;entryX=0.5;entryY=0;entryDx=0;entryDy=0;" parent="1" source="n5B1jlr7uFygAWaeZWys-18" target="n5B1jlr7uFygAWaeZWys-22" edge="1">
          <mxGeometry relative="1" as="geometry" />
        </mxCell>
        <mxCell id="n5B1jlr7uFygAWaeZWys-16" style="edgeStyle=orthogonalEdgeStyle;rounded=0;orthogonalLoop=1;jettySize=auto;html=1;exitX=0.5;exitY=1;exitDx=0;exitDy=0;entryX=0.5;entryY=0;entryDx=0;entryDy=0;" parent="1" source="n5B1jlr7uFygAWaeZWys-18" target="n5B1jlr7uFygAWaeZWys-23" edge="1">
          <mxGeometry relative="1" as="geometry" />
        </mxCell>
        <mxCell id="n5B1jlr7uFygAWaeZWys-18" value="Driver" style="rounded=1;whiteSpace=wrap;html=1;" parent="1" vertex="1">
          <mxGeometry x="680" y="220" width="120" height="60" as="geometry" />
        </mxCell>
        <mxCell id="n5B1jlr7uFygAWaeZWys-19" value="..." style="rounded=1;whiteSpace=wrap;html=1;" parent="1" vertex="1">
          <mxGeometry x="520" y="220" width="120" height="60" as="geometry" />
        </mxCell>
        <mxCell id="XY3lKd_vXmPaX-lAeWSB-8" style="edgeStyle=orthogonalEdgeStyle;rounded=0;orthogonalLoop=1;jettySize=auto;html=1;exitX=0.5;exitY=1;exitDx=0;exitDy=0;entryX=0.5;entryY=0;entryDx=0;entryDy=0;" edge="1" parent="1" source="n5B1jlr7uFygAWaeZWys-22" target="XY3lKd_vXmPaX-lAeWSB-4">
          <mxGeometry relative="1" as="geometry" />
        </mxCell>
        <mxCell id="XY3lKd_vXmPaX-lAeWSB-9" style="edgeStyle=orthogonalEdgeStyle;rounded=0;orthogonalLoop=1;jettySize=auto;html=1;exitX=0.5;exitY=1;exitDx=0;exitDy=0;entryX=0.5;entryY=0;entryDx=0;entryDy=0;" edge="1" parent="1" source="n5B1jlr7uFygAWaeZWys-22" target="XY3lKd_vXmPaX-lAeWSB-5">
          <mxGeometry relative="1" as="geometry" />
        </mxCell>
        <mxCell id="XY3lKd_vXmPaX-lAeWSB-10" style="edgeStyle=orthogonalEdgeStyle;rounded=0;orthogonalLoop=1;jettySize=auto;html=1;exitX=0.5;exitY=1;exitDx=0;exitDy=0;entryX=0.5;entryY=0;entryDx=0;entryDy=0;" edge="1" parent="1" source="n5B1jlr7uFygAWaeZWys-22" target="XY3lKd_vXmPaX-lAeWSB-6">
          <mxGeometry relative="1" as="geometry" />
        </mxCell>
        <mxCell id="n5B1jlr7uFygAWaeZWys-22" value="Female" style="rounded=1;whiteSpace=wrap;html=1;" parent="1" vertex="1">
          <mxGeometry x="527.5" y="400" width="90" height="60" as="geometry" />
        </mxCell>
        <mxCell id="XY3lKd_vXmPaX-lAeWSB-24" style="edgeStyle=orthogonalEdgeStyle;rounded=0;orthogonalLoop=1;jettySize=auto;html=1;exitX=0.5;exitY=1;exitDx=0;exitDy=0;entryX=0.5;entryY=0;entryDx=0;entryDy=0;" edge="1" parent="1" source="n5B1jlr7uFygAWaeZWys-23" target="XY3lKd_vXmPaX-lAeWSB-23">
          <mxGeometry relative="1" as="geometry" />
        </mxCell>
        <mxCell id="n5B1jlr7uFygAWaeZWys-23" value="Male" style="rounded=1;whiteSpace=wrap;html=1;" parent="1" vertex="1">
          <mxGeometry x="862.5" y="400" width="90" height="60" as="geometry" />
        </mxCell>
        <mxCell id="XY3lKd_vXmPaX-lAeWSB-25" style="edgeStyle=orthogonalEdgeStyle;rounded=0;orthogonalLoop=1;jettySize=auto;html=1;exitX=0.5;exitY=0;exitDx=0;exitDy=0;entryX=0.5;entryY=1;entryDx=0;entryDy=0;" edge="1" parent="1" source="XY3lKd_vXmPaX-lAeWSB-1" target="n5B1jlr7uFygAWaeZWys-8">
          <mxGeometry relative="1" as="geometry" />
        </mxCell>
        <mxCell id="XY3lKd_vXmPaX-lAeWSB-1" value="age_group" style="text;html=1;align=center;verticalAlign=middle;whiteSpace=wrap;rounded=0;fontSize=15;" vertex="1" parent="1">
          <mxGeometry x="40" y="585" width="60" height="30" as="geometry" />
        </mxCell>
        <mxCell id="XY3lKd_vXmPaX-lAeWSB-28" style="edgeStyle=orthogonalEdgeStyle;rounded=0;orthogonalLoop=1;jettySize=auto;html=1;exitX=0.5;exitY=0;exitDx=0;exitDy=0;entryX=0.5;entryY=1;entryDx=0;entryDy=0;" edge="1" parent="1" source="XY3lKd_vXmPaX-lAeWSB-2" target="XY3lKd_vXmPaX-lAeWSB-1">
          <mxGeometry relative="1" as="geometry" />
        </mxCell>
        <mxCell id="XY3lKd_vXmPaX-lAeWSB-2" value="age" style="text;html=1;align=center;verticalAlign=middle;whiteSpace=wrap;rounded=0;fontSize=15;" vertex="1" parent="1">
          <mxGeometry x="40" y="740" width="60" height="30" as="geometry" />
        </mxCell>
        <mxCell id="XY3lKd_vXmPaX-lAeWSB-3" value="..." style="rounded=1;whiteSpace=wrap;html=1;" vertex="1" parent="1">
          <mxGeometry x="375" y="400" width="90" height="60" as="geometry" />
        </mxCell>
        <mxCell id="XY3lKd_vXmPaX-lAeWSB-17" style="edgeStyle=orthogonalEdgeStyle;rounded=0;orthogonalLoop=1;jettySize=auto;html=1;exitX=0.5;exitY=1;exitDx=0;exitDy=0;entryX=0.5;entryY=0;entryDx=0;entryDy=0;" edge="1" parent="1" source="XY3lKd_vXmPaX-lAeWSB-4" target="XY3lKd_vXmPaX-lAeWSB-11">
          <mxGeometry relative="1" as="geometry" />
        </mxCell>
        <mxCell id="XY3lKd_vXmPaX-lAeWSB-18" style="edgeStyle=orthogonalEdgeStyle;rounded=0;orthogonalLoop=1;jettySize=auto;html=1;exitX=0.5;exitY=1;exitDx=0;exitDy=0;entryX=0.5;entryY=0;entryDx=0;entryDy=0;" edge="1" parent="1" source="XY3lKd_vXmPaX-lAeWSB-4" target="XY3lKd_vXmPaX-lAeWSB-13">
          <mxGeometry relative="1" as="geometry" />
        </mxCell>
        <mxCell id="XY3lKd_vXmPaX-lAeWSB-19" style="edgeStyle=orthogonalEdgeStyle;rounded=0;orthogonalLoop=1;jettySize=auto;html=1;exitX=0.5;exitY=1;exitDx=0;exitDy=0;entryX=0.5;entryY=0;entryDx=0;entryDy=0;" edge="1" parent="1" source="XY3lKd_vXmPaX-lAeWSB-4" target="XY3lKd_vXmPaX-lAeWSB-12">
          <mxGeometry relative="1" as="geometry" />
        </mxCell>
        <mxCell id="XY3lKd_vXmPaX-lAeWSB-4" value="0_to_16" style="rounded=1;whiteSpace=wrap;html=1;" vertex="1" parent="1">
          <mxGeometry x="377.5" y="570" width="90" height="60" as="geometry" />
        </mxCell>
        <mxCell id="XY3lKd_vXmPaX-lAeWSB-5" value="..." style="rounded=1;whiteSpace=wrap;html=1;" vertex="1" parent="1">
          <mxGeometry x="527.5" y="570" width="90" height="60" as="geometry" />
        </mxCell>
        <mxCell id="XY3lKd_vXmPaX-lAeWSB-21" style="edgeStyle=orthogonalEdgeStyle;rounded=0;orthogonalLoop=1;jettySize=auto;html=1;exitX=0.5;exitY=1;exitDx=0;exitDy=0;entryX=0.5;entryY=0;entryDx=0;entryDy=0;" edge="1" parent="1" source="XY3lKd_vXmPaX-lAeWSB-6" target="XY3lKd_vXmPaX-lAeWSB-14">
          <mxGeometry relative="1" as="geometry" />
        </mxCell>
        <mxCell id="XY3lKd_vXmPaX-lAeWSB-22" style="edgeStyle=orthogonalEdgeStyle;rounded=0;orthogonalLoop=1;jettySize=auto;html=1;exitX=0.5;exitY=1;exitDx=0;exitDy=0;entryX=0.5;entryY=0;entryDx=0;entryDy=0;" edge="1" parent="1" source="XY3lKd_vXmPaX-lAeWSB-6" target="XY3lKd_vXmPaX-lAeWSB-16">
          <mxGeometry relative="1" as="geometry" />
        </mxCell>
        <mxCell id="XY3lKd_vXmPaX-lAeWSB-6" value="75_or_older" style="rounded=1;whiteSpace=wrap;html=1;" vertex="1" parent="1">
          <mxGeometry x="677.5" y="570" width="90" height="60" as="geometry" />
        </mxCell>
        <mxCell id="XY3lKd_vXmPaX-lAeWSB-11" value="0" style="rounded=1;whiteSpace=wrap;html=1;" vertex="1" parent="1">
          <mxGeometry x="210" y="725" width="60" height="60" as="geometry" />
        </mxCell>
        <mxCell id="XY3lKd_vXmPaX-lAeWSB-12" value="16" style="rounded=1;whiteSpace=wrap;html=1;" vertex="1" parent="1">
          <mxGeometry x="440" y="725" width="60" height="60" as="geometry" />
        </mxCell>
        <mxCell id="XY3lKd_vXmPaX-lAeWSB-13" value="..." style="rounded=1;whiteSpace=wrap;html=1;" vertex="1" parent="1">
          <mxGeometry x="330" y="725" width="60" height="60" as="geometry" />
        </mxCell>
        <mxCell id="XY3lKd_vXmPaX-lAeWSB-14" value="75" style="rounded=1;whiteSpace=wrap;html=1;" vertex="1" parent="1">
          <mxGeometry x="650" y="725" width="60" height="60" as="geometry" />
        </mxCell>
        <mxCell id="XY3lKd_vXmPaX-lAeWSB-16" value="..." style="rounded=1;whiteSpace=wrap;html=1;" vertex="1" parent="1">
          <mxGeometry x="760" y="725" width="60" height="60" as="geometry" />
        </mxCell>
        <mxCell id="XY3lKd_vXmPaX-lAeWSB-23" value="..." style="rounded=1;whiteSpace=wrap;html=1;" vertex="1" parent="1">
          <mxGeometry x="862.5" y="570" width="90" height="60" as="geometry" />
        </mxCell>
      </root>
    </mxGraphModel>
  </diagram>
</mxfile>
